<svg width="20" height="20" viewBox="0 0 20 20" fill="none" xmlns="http://www.w3.org/2000/svg">
<path d="M5.09174 4.7964H5.36643C5.78388 4.7964 6.12227 4.45789 6.12227 4.04055V1.17456C6.12227 0.75722 5.78388 0.418751 5.36643 0.418751H5.09174C4.67433 0.418751 4.33594 0.75722 4.33594 1.17456V4.04055C4.33594 4.45789 4.67433 4.7964 5.09174 4.7964ZM14.7865 4.77767H15.0612C15.4786 4.77767 15.817 4.4392 15.817 4.02183V1.15579C15.817 0.738493 15.4786 0.400024 15.0612 0.400024H14.7865C14.369 0.400024 14.0306 0.738493 14.0306 1.15579V4.02179C14.0307 4.4392 14.369 4.77767 14.7865 4.77767Z" fill="#FE4C4C"/>
<path d="M18.3717 1.95471H16.4318V4.21971C16.4318 4.97528 15.8172 5.39202 15.0617 5.39202H14.787C14.0314 5.39202 13.4168 4.77732 13.4168 4.02175V1.95471H6.73715V4.04048C6.73715 4.79604 6.12249 5.41074 5.36692 5.41074H5.09224C4.33671 5.41074 3.72205 4.79604 3.72205 4.04048V1.95471H1.62916C0.951625 1.95471 0.400391 2.50595 0.400391 3.18352V18.0316C0.400391 18.7091 0.951625 19.2604 1.62916 19.2604H18.3717C19.0492 19.2604 19.6004 18.7091 19.6004 18.0316V3.18352C19.6005 2.50599 19.0492 1.95471 18.3717 1.95471ZM18.3717 18.0316H1.6292L1.62916 6.8187H18.3719L18.3725 18.0315L18.3717 18.0316Z" fill="#FE4C4C"/>
<path d="M10.635 10.5799H12.8413C12.8833 10.5799 12.9236 10.5632 12.9533 10.5335C12.983 10.5038 12.9997 10.4635 12.9997 10.4215V8.51103C12.9997 8.46903 12.983 8.42874 12.9533 8.39905C12.9236 8.36935 12.8833 8.35266 12.8413 8.35266H10.635C10.593 8.35266 10.5527 8.36935 10.523 8.39905C10.4933 8.42874 10.4766 8.46903 10.4766 8.51103V10.4215C10.4766 10.4635 10.4933 10.5038 10.523 10.5335C10.5527 10.5632 10.593 10.5799 10.635 10.5799ZM14.2356 10.5799H16.4419C16.4839 10.5799 16.5242 10.5632 16.5539 10.5335C16.5836 10.5038 16.6003 10.4635 16.6003 10.4215V8.51103C16.6003 8.46903 16.5836 8.42874 16.5539 8.39905C16.5242 8.36935 16.4839 8.35266 16.4419 8.35266H14.2356C14.1936 8.35266 14.1533 8.36935 14.1236 8.39905C14.0939 8.42874 14.0773 8.46903 14.0773 8.51103V10.4215C14.0773 10.4635 14.0939 10.5038 14.1236 10.5335C14.1533 10.5632 14.1936 10.5799 14.2356 10.5799ZM3.43376 13.7076H5.64004C5.68204 13.7076 5.72232 13.6909 5.75202 13.6612C5.78172 13.6315 5.79841 13.5913 5.79841 13.5493V11.6387C5.79841 11.5967 5.78172 11.5564 5.75202 11.5267C5.72232 11.497 5.68204 11.4804 5.64004 11.4804H3.43376C3.39176 11.4804 3.35147 11.497 3.32177 11.5267C3.29208 11.5564 3.27539 11.5967 3.27539 11.6387V13.5493C3.27539 13.5913 3.29208 13.6315 3.32177 13.6612C3.35147 13.6909 3.39176 13.7076 3.43376 13.7076ZM7.03438 13.7076H9.24066C9.28266 13.7076 9.32294 13.6909 9.35264 13.6612C9.38234 13.6315 9.39903 13.5913 9.39903 13.5493V11.6387C9.39903 11.5967 9.38234 11.5564 9.35264 11.5267C9.32294 11.497 9.28266 11.4804 9.24066 11.4804H7.03438C6.99238 11.4804 6.9521 11.497 6.9224 11.5267C6.8927 11.5564 6.87601 11.5967 6.87601 11.6387V13.5493C6.87601 13.5913 6.8927 13.6315 6.9224 13.6612C6.9521 13.6909 6.99238 13.7076 7.03438 13.7076ZM10.635 13.7076H12.8413C12.8833 13.7076 12.9236 13.6909 12.9533 13.6612C12.983 13.6315 12.9997 13.5913 12.9997 13.5493V11.6387C12.9997 11.5967 12.983 11.5564 12.9533 11.5267C12.9236 11.497 12.8833 11.4804 12.8413 11.4804H10.635C10.593 11.4804 10.5527 11.497 10.523 11.5267C10.4933 11.5564 10.4766 11.5967 10.4766 11.6387V13.5493C10.4766 13.5913 10.4933 13.6315 10.523 13.6612C10.5527 13.6909 10.593 13.7076 10.635 13.7076ZM14.2356 13.7076H16.4419C16.4839 13.7076 16.5242 13.6909 16.5539 13.6612C16.5836 13.6315 16.6003 13.5913 16.6003 13.5493V11.6387C16.6003 11.5967 16.5836 11.5564 16.5539 11.5267C16.5242 11.497 16.4839 11.4804 16.4419 11.4804H14.2356C14.1936 11.4804 14.1533 11.497 14.1236 11.5267C14.0939 11.5564 14.0773 11.5967 14.0773 11.6387V13.5493C14.0773 13.5913 14.0939 13.6315 14.1236 13.6612C14.1533 13.6909 14.1936 13.7076 14.2356 13.7076ZM5.64004 14.6081H3.4338C3.3918 14.6081 3.35151 14.6248 3.32181 14.6545C3.29212 14.6842 3.27543 14.7245 3.27543 14.7665V16.677C3.27543 16.719 3.29212 16.7593 3.32181 16.789C3.35151 16.8187 3.3918 16.8354 3.4338 16.8354H5.64008C5.68208 16.8354 5.72236 16.8187 5.75206 16.789C5.78176 16.7593 5.79845 16.719 5.79845 16.677V14.7665C5.79843 14.7245 5.78173 14.6842 5.75202 14.6545C5.72232 14.6248 5.68204 14.6081 5.64004 14.6081ZM9.2407 14.6081H7.03442C6.99242 14.6081 6.95214 14.6248 6.92244 14.6545C6.89274 14.6842 6.87605 14.7245 6.87605 14.7665V16.677C6.87605 16.719 6.89274 16.7593 6.92244 16.789C6.95214 16.8187 6.99242 16.8354 7.03442 16.8354H9.2407C9.2827 16.8354 9.32298 16.8187 9.35268 16.789C9.38238 16.7593 9.39907 16.719 9.39907 16.677V14.7665C9.39907 14.7245 9.38238 14.6842 9.35268 14.6545C9.32298 14.6248 9.2827 14.6081 9.2407 14.6081ZM12.8414 14.6081H10.635C10.593 14.6081 10.5528 14.6248 10.5231 14.6545C10.4934 14.6842 10.4767 14.7245 10.4767 14.7665V16.677C10.4767 16.719 10.4934 16.7593 10.5231 16.789C10.5528 16.8187 10.593 16.8354 10.635 16.8354H12.8414C12.8834 16.8354 12.9236 16.8187 12.9533 16.789C12.983 16.7593 12.9997 16.719 12.9997 16.677V14.7665C12.9997 14.7245 12.983 14.6842 12.9533 14.6545C12.9236 14.6248 12.8834 14.6081 12.8414 14.6081ZM16.4419 14.6081H14.2356C14.1936 14.6081 14.1533 14.6248 14.1236 14.6545C14.0939 14.6842 14.0773 14.7245 14.0773 14.7665V16.677C14.0773 16.719 14.0939 16.7593 14.1236 16.789C14.1533 16.8187 14.1936 16.8354 14.2356 16.8354H16.4419C16.4839 16.8354 16.5242 16.8187 16.5539 16.789C16.5836 16.7593 16.6003 16.719 16.6003 16.677V14.7665C16.6003 14.7245 16.5836 14.6842 16.5539 14.6545C16.5242 14.6248 16.4839 14.6081 16.4419 14.6081Z" fill="#FE4C4C"/>
</svg>
