<svg width="22" height="19" viewBox="0 0 22 19" fill="none" xmlns="http://www.w3.org/2000/svg">
<path d="M9.4133 18.018H9.40439C9.34697 18.0168 9.29038 18.004 9.23802 17.9804C9.18566 17.9568 9.13861 17.9229 9.0997 17.8806L1.06252 9.14123C0.995674 9.06857 0.956139 8.97495 0.950667 8.87637C0.945196 8.7778 0.974126 8.68038 1.03252 8.60076C1.09093 8.52117 1.17514 8.4643 1.27079 8.43985C1.36644 8.41541 1.46761 8.4249 1.55705 8.4667L8.91314 11.9111C8.97502 11.9401 9.04814 11.9261 9.09548 11.8769L20.3164 0.149202C20.4683 -0.00970439 20.7167 -0.0270481 20.8892 0.109827C21.0617 0.246702 21.1016 0.492327 20.9811 0.676546L9.81923 17.7756C9.8033 17.8005 9.78455 17.823 9.76392 17.844L9.7147 17.8933C9.6346 17.9729 9.52627 18.0177 9.4133 18.018Z" fill="white"/>
</svg>
