<svg width="25" height="25" viewBox="0 0 25 25" fill="none" xmlns="http://www.w3.org/2000/svg">
<path d="M19.1649 24.5C16.9602 24.498 14.7897 23.9531 12.8455 22.9135L12.2456 22.5802C8.10028 20.3515 4.70186 16.953 2.47315 12.8078L2.13985 12.2079C1.07304 10.2526 0.509507 8.06251 0.500001 5.83512V4.94188C0.499441 4.23123 0.782587 3.54975 1.28659 3.04873L3.53971 0.795614C3.75853 0.575102 4.06741 0.468819 4.37558 0.507989C4.68375 0.547159 4.95622 0.727354 5.1129 0.995595L8.11261 6.14176C8.41596 6.66556 8.32837 7.32799 7.8993 7.75494L5.37954 10.2747C5.17028 10.4816 5.12152 10.8013 5.25955 11.0613L5.72617 11.9412C7.40207 15.0455 9.95151 17.5903 13.0588 19.2605L13.9387 19.7405C14.1987 19.8785 14.5184 19.8297 14.7253 19.6205L17.2451 17.1007C17.672 16.6717 18.3344 16.5841 18.8583 16.8874L24.0044 19.8871C24.2727 20.0438 24.4529 20.3163 24.492 20.6244C24.5312 20.9326 24.4249 21.2415 24.2044 21.4603L21.9513 23.7134C21.4503 24.2174 20.7688 24.5005 20.0582 24.5H19.1649Z" fill="white"/>
</svg>
