<svg width="33" height="32" viewBox="0 0 33 32" fill="none" xmlns="http://www.w3.org/2000/svg">
<path d="M16.6666 0C25.5032 0 32.6666 7.16344 32.6666 16C32.6666 24.8366 25.5032 32 16.6666 32C7.83007 32 0.666626 24.8366 0.666626 16C0.666626 7.16344 7.83007 2.5772e-07 16.6666 0ZM24.528 10.9668C24.7966 9.8896 24.1175 9.40125 23.4137 9.7207L8.00159 15.6631C6.94957 16.085 6.95606 16.6721 7.81018 16.9336L11.7653 18.168L20.9215 12.3916C21.3537 12.1296 21.75 12.2706 21.4244 12.5596L14.0055 19.2549L13.733 23.333C14.1328 23.333 14.3097 23.1505 14.5328 22.9336L16.4547 21.0645L20.4537 24.0186C21.1894 24.4243 21.7197 24.2137 21.903 23.335L24.528 10.9668Z" fill="#2290FF"/>
</svg>
