<svg width="20" height="20" viewBox="0 0 20 20" fill="none" xmlns="http://www.w3.org/2000/svg">
<path d="M16.7886 3.21181C14.9754 1.39861 12.5646 0.400024 10.0004 0.400024C7.43614 0.400024 5.02534 1.39861 3.21214 3.21181C1.39894 5.02501 0.400391 7.43577 0.400391 10C0.400391 12.5643 1.39894 14.9751 3.21214 16.7882C5.02534 18.6014 7.43614 19.6 10.0004 19.6C12.5646 19.6 14.9754 18.6014 16.7886 16.7882C18.6018 14.975 19.6004 12.5643 19.6004 10C19.6004 7.43577 18.6018 5.02497 16.7886 3.21181ZM10.0004 17.7157C5.7459 17.7157 2.28469 14.2545 2.28469 10C2.28469 9.99305 2.28492 9.98615 2.28495 9.97925C2.28495 9.97749 2.28469 9.9758 2.28469 9.97404C2.28469 9.97108 2.28507 9.96822 2.28514 9.9653C2.30385 5.76181 5.70087 2.34192 9.89554 2.28567C9.90432 2.28526 9.91302 2.28436 9.9219 2.28436C9.92723 2.28436 9.9324 2.285 9.93769 2.28515C9.95862 2.285 9.97947 2.28436 10.0004 2.28436C14.2549 2.28436 17.7161 5.74561 17.7161 10.0001C17.7161 14.2545 14.2549 17.7157 10.0004 17.7157Z" fill="#FE4C4C"/>
<path d="M15.8613 10.4635C15.5476 10.4635 15.2932 10.2092 15.2932 9.89546C15.2932 9.58174 15.5476 9.32741 15.8613 9.32741H16.546C16.2244 6.17456 13.6674 3.67342 10.4901 3.4386V4.03466C10.4901 4.34839 10.2357 4.60271 9.92201 4.60271C9.60828 4.60271 9.35396 4.34839 9.35396 4.03466V3.45217C6.22361 3.75892 3.73012 6.2685 3.44801 9.4059H4.06121C4.37493 9.4059 4.62926 9.66022 4.62926 9.97395C4.62926 10.2877 4.37493 10.542 4.06121 10.542H3.44336C3.70455 13.7299 6.24802 16.2812 9.43248 16.5548V15.8347C9.43248 15.521 9.68681 15.2667 10.0005 15.2667C10.3143 15.2667 10.5686 15.521 10.5686 15.8347V16.5548C13.7791 16.2789 16.3381 13.6879 16.5636 10.4635H15.8613ZM12.3 8.50384L10.4022 10.4017C10.3495 10.4544 10.2869 10.4963 10.218 10.5248C10.149 10.5534 10.0752 10.5681 10.0006 10.5681C9.92597 10.5681 9.85211 10.5534 9.78319 10.5248C9.71427 10.4963 9.65165 10.4544 9.59891 10.4017L6.29542 7.09819C6.07357 6.87637 6.07357 6.51671 6.29542 6.29486C6.51723 6.07301 6.8769 6.07301 7.09875 6.29486L10.0006 9.19669L11.4968 7.70051C11.7186 7.47866 12.0783 7.47866 12.3001 7.70051C12.5219 7.92232 12.5219 8.28202 12.3 8.50384Z" fill="#FE4C4C"/>
</svg>
