<svg width="33" height="32" viewBox="0 0 33 32" fill="none" xmlns="http://www.w3.org/2000/svg">
<path d="M16.6666 0C25.5032 0 32.6666 7.16344 32.6666 16C32.6666 24.8366 25.5032 32 16.6666 32C7.83007 32 0.666626 24.8366 0.666626 16C0.666626 7.16344 7.83007 2.5772e-07 16.6666 0ZM17.194 5.86621C11.95 5.86621 7.68156 10.1343 7.67932 15.3799C7.67861 17.0567 8.11724 18.6938 8.94983 20.1367L7.60022 25.0664L12.6432 23.7432C14.0328 24.5011 15.5978 24.9008 17.1901 24.9014H17.194C22.4396 24.8992 26.7055 20.6322 26.7076 15.3877C26.7086 12.8457 25.7205 10.4555 23.9244 8.65723C22.1282 6.85888 19.7391 5.86732 17.194 5.86621Z" fill="#3CBC5D"/>
<path d="M17.1973 7.47363C19.3094 7.47439 21.2951 8.29826 22.7881 9.79297C24.2808 11.2876 25.1023 13.274 25.1016 15.3867C25.0998 19.7469 21.5527 23.2948 17.1943 23.2949H17.1904C15.7716 23.2943 14.38 22.9128 13.166 22.1924L12.877 22.0215L9.88477 22.8066L10.6836 19.8887L10.4951 19.5889C9.70364 18.3299 9.28555 16.8749 9.28613 15.3809C9.28786 11.0209 12.8354 7.47363 17.1973 7.47363ZM13.8252 10.9863C13.6667 10.9864 13.4091 11.0464 13.1914 11.2842C12.9733 11.5223 12.3594 12.0979 12.3594 13.2676C12.3596 14.4375 13.2112 15.5679 13.3301 15.7266C13.4489 15.8853 15.0069 18.2867 17.3916 19.3164C17.9586 19.5613 18.4019 19.7069 18.7471 19.8164C19.3164 19.9973 19.8347 19.9724 20.2441 19.9111C20.701 19.8428 21.6505 19.3355 21.8486 18.7803C22.0464 18.2255 22.0465 17.7501 21.9873 17.6504C21.9279 17.5512 21.769 17.4911 21.5313 17.3721C21.2926 17.2526 20.1251 16.678 19.9072 16.5986C19.6894 16.5194 19.5305 16.4799 19.3721 16.7178C19.2136 16.9557 18.7578 17.4917 18.6191 17.6504C18.4806 17.8086 18.3419 17.8289 18.1045 17.71C17.8668 17.591 17.1004 17.3392 16.1924 16.5293C15.4859 15.899 15.0088 15.1208 14.8701 14.8828C14.7316 14.6449 14.8556 14.516 14.9746 14.3975C15.0815 14.291 15.2123 14.1201 15.3311 13.9814C15.4499 13.8427 15.4901 13.7435 15.5693 13.585C15.6486 13.4262 15.6083 13.287 15.5488 13.168C15.4889 13.0477 15.0145 11.8792 14.8164 11.4033C14.6234 10.9398 14.4272 11.0024 14.2813 10.9951C14.1427 10.9882 13.9837 10.9863 13.8252 10.9863Z" fill="#3CBC5D"/>
</svg>
