<svg xmlns="http://www.w3.org/2000/svg" version="1.1" xmlns:xlink="http://www.w3.org/1999/xlink" width="78" height="50"><svg width="78" height="50" viewBox="0 0 78 50" fill="none" xmlns="http://www.w3.org/2000/svg">
<path d="M77.8751 23.9617H68.5567C59.3667 23.9617 51.9167 31.4116 51.9167 40.6017V49.9201H61.2351C70.4251 49.9201 77.8751 42.4701 77.8751 33.2801V23.9617Z" fill="#D6DF6A"></path>
<path d="M66.8384 2.66251L63.9961 3.42411C55.1192 5.80266 49.8513 14.927 52.2298 23.8039L52.9914 26.6462L55.8338 25.8846C64.7106 23.506 69.9786 14.3817 67.6 5.50484L66.8384 2.66251Z" fill="#D6DF6A"></path>
<path d="M26.624 0.00012207C39.49 0.000127491 49.9199 10.43 49.9199 23.296V49.92H23.2959C10.4299 49.92 1.10496e-05 39.4901 0 26.6241V0.00012207H26.624ZM25.5 11.2404C25.3218 11.2404 25.145 11.2754 24.9805 11.3439C24.816 11.4124 24.6665 11.5124 24.541 11.6388L12.3887 23.7853C12.2015 23.975 12.0748 24.2161 12.0244 24.4777C11.974 24.7394 12.0021 25.0103 12.1055 25.256C12.2067 25.5024 12.3786 25.7135 12.5996 25.8624C12.8206 26.0113 13.0811 26.0915 13.3477 26.0929H14.6982V35.9445C14.7229 36.5756 14.9969 37.1718 15.46 37.6017C15.923 38.0314 16.5375 38.2603 17.1689 38.2384H20.7744C21.1324 38.2383 21.4754 38.0959 21.7285 37.8429C21.9817 37.5898 22.124 37.2467 22.124 36.8888V30.2765C22.124 29.9188 22.2666 29.5754 22.5195 29.3224C22.7728 29.0693 23.1165 28.9269 23.4746 28.9269H27.5254C27.8835 28.9269 28.2273 29.0693 28.4805 29.3224C28.7334 29.5754 28.876 29.9188 28.876 30.2765V36.8888C28.876 37.2467 29.0183 37.5898 29.2715 37.8429C29.5246 38.0959 29.8676 38.2383 30.2256 38.2384H33.8311C34.4625 38.2603 35.077 38.0314 35.54 37.6017C36.0031 37.1718 36.2771 36.5756 36.3018 35.9445V26.0929H37.6523C37.9189 26.0915 38.1794 26.0113 38.4004 25.8624C38.6214 25.7135 38.7933 25.5024 38.8945 25.256C38.9979 25.0103 39.026 24.7394 38.9756 24.4777C38.9252 24.2161 38.7985 23.975 38.6113 23.7853L26.459 11.6388C26.3335 11.5124 26.1839 11.4124 26.0195 11.3439C25.855 11.2754 25.6782 11.2404 25.5 11.2404Z" fill="#4D8A4A"></path>
</svg><style>@media (prefers-color-scheme: light) { :root { filter: none; } }
@media (prefers-color-scheme: dark) { :root { filter: none; } }
</style></svg>