<svg width="48" height="49" viewBox="0 0 48 49" fill="none" xmlns="http://www.w3.org/2000/svg">
<g clip-path="url(#clip0_746_4571)">
<path d="M36 0.5H12C5.37258 0.5 0 5.87258 0 12.5V36.5C0 43.1274 5.37258 48.5 12 48.5H36C42.6274 48.5 48 43.1274 48 36.5V12.5C48 5.87258 42.6274 0.5 36 0.5Z" fill="#2290FF"/>
<path d="M33 9.5H15C11.6863 9.5 9 12.1863 9 15.5V33.5C9 36.8137 11.6863 39.5 15 39.5H33C36.3137 39.5 39 36.8137 39 33.5V15.5C39 12.1863 36.3137 9.5 33 9.5Z" fill="white"/>
<path d="M17.25 25.25V20.75" stroke="#222222" stroke-width="1.1" stroke-linecap="round" stroke-linejoin="round"/>
<path d="M24.75 31.25V28.25" stroke="#222222" stroke-width="1.1" stroke-linecap="round" stroke-linejoin="round"/>
<path d="M30.75 28.25H33.75" stroke="#222222" stroke-width="1.1" stroke-linecap="round" stroke-linejoin="round"/>
<path d="M17.25 28.25H21.75" stroke="#222222" stroke-width="1.1" stroke-linecap="round" stroke-linejoin="round"/>
<path d="M27.75 25.25H31.5" stroke="#222222" stroke-width="1.1" stroke-linecap="round" stroke-linejoin="round"/>
<path d="M20.25 25.25H24.3501C24.5709 25.25 24.75 25.0709 24.75 24.8499V22.25" stroke="#222222" stroke-width="1.1" stroke-linecap="round" stroke-linejoin="round"/>
<path d="M23.25 17.75H27.75" stroke="#222222" stroke-width="1.1" stroke-linecap="round" stroke-linejoin="round"/>
<path d="M20.25 22.25H21.75" stroke="#222222" stroke-width="1.1" stroke-linecap="round" stroke-linejoin="round"/>
<path d="M33.75 22.25H31.1501C30.9291 22.25 30.75 22.0709 30.75 21.85V18.5" stroke="#222222" stroke-width="1.1" stroke-linecap="round" stroke-linejoin="round"/>
<path d="M17.25 14.75H20.25M20.25 14.75H24.75M20.25 14.75V19.25" stroke="#222222" stroke-width="1.1" stroke-linecap="round" stroke-linejoin="round"/>
<path d="M30.75 14.75H33C33.4142 14.75 33.75 15.0858 33.75 15.5V19.25" stroke="#222222" stroke-width="1.1" stroke-linecap="round" stroke-linejoin="round"/>
<path d="M14.25 14.75V32.6501C14.25 33.5337 14.9663 34.2501 15.85 34.2501H33.75" stroke="#222222" stroke-width="1.1" stroke-linecap="round" stroke-linejoin="round"/>
<path d="M27.75 15.6147C28.2274 15.6147 28.6144 15.2276 28.6144 14.7502C28.6144 14.2728 28.2274 13.8857 27.75 13.8857C27.2725 13.8857 26.8855 14.2728 26.8855 14.7502C26.8855 15.2276 27.2725 15.6147 27.75 15.6147Z" fill="#222222"/>
<path d="M27.75 23.1147C28.2274 23.1147 28.6144 22.7276 28.6144 22.2502C28.6144 21.7728 28.2274 21.3857 27.75 21.3857C27.2725 21.3857 26.8855 21.7728 26.8855 22.2502C26.8855 22.7276 27.2725 23.1147 27.75 23.1147Z" fill="#222222"/>
<path d="M27.75 29.1147C28.2274 29.1147 28.6144 28.7276 28.6144 28.2502C28.6144 27.7728 28.2274 27.3857 27.75 27.3857C27.2725 27.3857 26.8855 27.7728 26.8855 28.2502C26.8855 28.7276 27.2725 29.1147 27.75 29.1147Z" fill="#222222"/>
<path d="M30.75 32.1147C31.2274 32.1147 31.6144 31.7276 31.6144 31.2502C31.6144 30.7728 31.2274 30.3857 30.75 30.3857C30.2725 30.3857 29.8855 30.7728 29.8855 31.2502C29.8855 31.7276 30.2725 32.1147 30.75 32.1147Z" fill="#222222"/>
<path d="M17.25 32.1147C17.7274 32.1147 18.1144 31.7276 18.1144 31.2502C18.1144 30.7728 17.7274 30.3857 17.25 30.3857C16.7725 30.3857 16.3855 30.7728 16.3855 31.2502C16.3855 31.7276 16.7725 32.1147 17.25 32.1147Z" fill="#222222"/>
<path d="M17.25 18.6147C17.7274 18.6147 18.1144 18.2276 18.1144 17.7502C18.1144 17.2728 17.7274 16.8857 17.25 16.8857C16.7725 16.8857 16.3855 17.2728 16.3855 17.7502C16.3855 18.2276 16.7725 18.6147 17.25 18.6147Z" fill="#222222"/>
<path d="M20.25 32.1147C20.7274 32.1147 21.1144 31.7276 21.1144 31.2502C21.1144 30.7728 20.7274 30.3857 20.25 30.3857C19.7725 30.3857 19.3855 30.7728 19.3855 31.2502C19.3855 31.7276 19.7725 32.1147 20.25 32.1147Z" fill="#222222"/>
</g>
<defs>
<clipPath id="clip0_746_4571">
<rect width="48" height="48" fill="white" transform="translate(0 0.5)"/>
</clipPath>
</defs>
</svg>
