<svg width="197" height="39" viewBox="0 0 197 39" fill="none" xmlns="http://www.w3.org/2000/svg">
<g clip-path="url(#clip0_2001_2292)">
<path d="M23.1451 6.33203L16.3389 15.9339L9.53267 6.33203H0L11.5676 22.6611L0 39H9.53267L16.3389 29.3883L23.1451 39H32.6679L21.1003 22.6611L32.6679 6.33203H23.1451Z" fill="#222222"/>
<path d="M43.6527 6.33203L33.2112 39H42.3685L44.0577 32.6086H53.2842L54.9734 39H64.0813L53.6892 6.33203H43.6626H43.6527ZM45.6383 26.6223L48.671 15.1238L51.7036 26.6223H45.6284H45.6383Z" fill="#222222"/>
<path d="M75.9453 26.2074V6.33203H66.9757V39H72.3989C74.3153 39 76.0836 37.9924 77.0714 36.3525L87.4043 19.1246V39H96.3738V6.33203H87.997L75.9453 26.2074Z" fill="#222222"/>
<path d="M99.9005 14.1557H109.878V39H118.847V14.1557H128.785V6.33203H99.9005V14.1557Z" fill="#222222"/>
<path d="M183.452 22.108L194.951 6.32227H185.102L176.685 18.3344H174.848V6.33214H165.918V39.0001H174.848V26.4841C175.767 26.4841 176.636 26.9286 177.169 27.6893L183.531 36.6984C184.549 38.1407 186.208 39.0001 187.976 39.0001H196.017L183.452 22.1179V22.108Z" fill="#222222"/>
<path d="M81.6748 6.33207C84.8951 6.33207 87.6611 4.35638 88.7971 1.54103L85.0038 0C84.4802 1.31383 83.1763 2.2424 81.6748 2.2424C80.1732 2.2424 78.8693 1.31383 78.326 0L74.5524 1.54103C75.6983 4.35638 78.4544 6.33207 81.6748 6.33207Z" fill="#222222"/>
<path d="M142.98 26.9285V26.0197H157.571V18.7492H142.98V14.1557H159.596V6.33203H134.011V12.101V14.1557V18.7393V26.9285V39H160.011V31.1763H142.98V26.9285Z" fill="#222222"/>
</g>
<defs>
<clipPath id="clip0_2001_2292">
<rect width="196.017" height="39" fill="white"/>
</clipPath>
</defs>
</svg>
