<svg width="203" height="67" viewBox="0 0 203 67" fill="none" xmlns="http://www.w3.org/2000/svg">
<path fill-rule="evenodd" clip-rule="evenodd" d="M6.89671 58.2786L10.9656 64.1541H8.68768L5.18432 59.1426H3.50334V64.1541H1.50817V54.8695H0L1.00545 53H3.50334V57.4145H5.18432L8.51487 53H10.7771L6.89671 58.2786ZM10.3529 60.1324C10.3529 59.2631 10.5519 58.5038 10.9499 57.8544C11.3374 57.2469 11.8663 56.7809 12.5366 56.4562C13.2069 56.1315 13.9296 55.9692 14.7046 55.9692C15.5006 55.9692 16.218 56.1263 16.8569 56.4405C17.5272 56.7652 18.0561 57.2469 18.4436 57.8858C18.8311 58.5142 19.0249 59.2631 19.0249 60.1324C19.0249 61.0121 18.8311 61.7714 18.4436 62.4103C18.0561 63.0387 17.5272 63.5257 16.8569 63.8713C16.1971 64.2065 15.4797 64.3741 14.7046 64.3741C13.9401 64.3741 13.2226 64.2065 12.5523 63.8713C11.8716 63.5362 11.3322 63.0492 10.9342 62.4103C10.5467 61.761 10.3529 61.0016 10.3529 60.1324ZM44.2395 56.2206H46.0147V57.3046C46.287 56.8856 46.6484 56.5662 47.0987 56.3462C47.5595 56.1158 48.1513 56.0006 48.874 56.0006C49.6176 56.0006 50.2774 56.1682 50.8534 56.5033C51.4085 56.849 51.8379 57.3412 52.1416 57.9801C52.4559 58.6085 52.6129 59.3311 52.6129 60.1481C52.6129 60.9755 52.4559 61.7086 52.1416 62.3475C51.8379 62.9759 51.4085 63.4629 50.8534 63.8085C50.5916 63.9866 50.2826 64.1175 49.9265 64.2013C49.5809 64.2955 49.23 64.3426 48.874 64.3426C48.256 64.3426 47.7952 64.2955 47.4915 64.2013C46.8631 64.0127 46.418 63.6985 46.1561 63.2587V66.9662H44.2395V56.2206ZM20.046 56.2206H21.947V59.2369H25.1989V56.2206H27.0841V64.1541H25.1989V60.8079H21.947V64.1541H20.046V56.2206ZM27.9168 56.2206H35.2219V57.7287H32.5198V64.1541H30.5875V57.7287H27.9168V56.2206ZM37.8455 56.2206C38.5577 58.1686 39.207 60.0957 39.7936 62.0019C40.3486 60.1166 40.977 58.1895 41.6788 56.2206H43.5954L40.6733 64.3112C40.4324 64.971 40.202 65.479 39.9821 65.8351C39.7412 66.1912 39.4427 66.4583 39.0866 66.6363C38.741 66.8248 38.2802 66.9191 37.7041 66.9191C37.3794 66.9191 37.2014 66.9139 37.17 66.9034L36.5259 65.3952C36.7249 65.4371 36.971 65.4581 37.2642 65.4581C37.6203 65.4581 37.9083 65.4057 38.1283 65.301C38.3273 65.2172 38.4791 65.102 38.5839 64.9553C38.6886 64.8192 38.7776 64.6464 38.851 64.4369L35.8346 56.2206H37.8455ZM12.2853 60.1166C12.2853 60.9859 12.4947 61.651 12.9137 62.1118C13.3326 62.5622 13.9139 62.7874 14.6575 62.7874C15.4116 62.7874 15.9981 62.5622 16.417 62.1118C16.8464 61.651 17.0611 60.9859 17.0611 60.1166C17.0611 59.2683 16.8517 58.6294 16.4327 58.2C16.0138 57.7601 15.422 57.5402 14.6575 57.5402C13.9034 57.5402 13.3169 57.7601 12.898 58.2C12.4895 58.6294 12.2853 59.2683 12.2853 60.1166ZM46.109 60.1324C46.1299 60.9179 46.3394 61.5463 46.7374 62.0176C47.1354 62.4889 47.6957 62.7245 48.4184 62.7245C49.141 62.7245 49.6961 62.4889 50.0836 62.0176C50.4816 61.5463 50.6858 60.9179 50.6963 60.1324C50.6858 59.3573 50.4816 58.7394 50.0836 58.2786C49.6961 57.8073 49.141 57.5716 48.4184 57.5716C47.6957 57.5716 47.1354 57.802 46.7374 58.2629C46.3394 58.7237 46.1299 59.3469 46.109 60.1324Z" fill="#CCCCCC"/>
<path d="M60.1536 53.0464V65.7414" stroke="#CCCCCC" stroke-width="0.847821"/>
<path fill-rule="evenodd" clip-rule="evenodd" d="M76.0721 59.7037C76.0972 57.0586 74.3922 55.0151 71.7596 55.0528C69.1144 55.0528 67.4346 57.0335 67.4346 59.7037C67.4346 62.374 69.1144 64.3547 71.7596 64.3547C74.3922 64.3923 76.0972 62.3489 76.0721 59.7037ZM68.9515 59.7037C68.9515 57.7105 70.0797 56.3565 71.7596 56.3565C73.452 56.3565 74.5552 57.7105 74.5552 59.7037C74.5552 61.697 73.452 63.0509 71.7596 63.0509C70.0797 63.0509 68.9515 61.697 68.9515 59.7037ZM80.5307 55.2533V57.6728C79.4651 57.7105 78.6126 58.0239 77.9482 58.6005C77.2963 59.1647 76.9703 59.967 76.9703 61.0075C76.9703 62.048 77.2963 62.8503 77.9482 63.427C78.6126 63.9911 79.4651 64.3045 80.5307 64.3422V66.4106H81.8597V64.3422C83.9282 64.2669 85.4199 63.1136 85.4199 61.0075C85.4199 58.9014 83.9282 57.7481 81.8597 57.6728V55.2533H80.5307ZM80.568 63.2264C79.2017 63.1888 78.3744 62.4116 78.3744 61.0075C78.3744 59.6034 79.2017 58.8262 80.568 58.7886V63.2264ZM81.8216 58.7886C83.1879 58.8262 84.0155 59.6034 84.0155 61.0075C84.0155 62.4116 83.1879 63.1888 81.8216 63.2264V58.7886ZM90.8755 57.8609L89.1459 60.6314C88.8451 61.1203 88.4183 61.8349 87.8795 62.7876C87.9049 62.048 87.9168 61.2081 87.9168 60.2929V57.8609H86.6386V64.1541H88.1429L89.8599 61.371C90.2487 60.7317 90.6748 60.0046 91.139 59.2148C91.1017 59.8416 91.089 60.7192 91.089 61.8474V64.1541H92.3799V57.8609H90.8755ZM98.9987 65.7211H100.34V63.0384H99.4248V57.8609H98.0458V63.0384H95.3632V57.8609H93.9842V64.1541H98.9987V65.7211ZM105.677 57.8609L103.947 60.6314C103.646 61.1203 103.22 61.8349 102.68 62.7876C102.706 62.048 102.718 61.2081 102.718 60.2929V57.8609H101.439V64.1541H102.944L104.662 61.371C105.05 60.7317 105.476 60.0046 105.94 59.2148C105.902 59.8416 105.89 60.7192 105.89 61.8474V64.1541H107.181V57.8609H105.677ZM114.076 59.8542C114.076 58.5128 113.123 57.6603 111.418 57.6603C110.252 57.6603 109.362 58.0991 108.572 59.0393L109.437 59.8416C110.189 59.0894 110.665 58.8011 111.456 58.8011C112.258 58.8011 112.759 59.1897 112.759 59.8792V60.1049L111.318 60.3681C110.427 60.5311 109.738 60.7818 109.236 61.1078C108.748 61.4212 108.497 61.9101 108.497 62.5745C108.497 63.778 109.45 64.3547 110.754 64.3547C111.706 64.3547 112.433 64.0287 112.835 63.4395V64.1541H114.076V59.8542ZM112.759 61.6845C112.759 62.6874 111.969 63.2515 110.954 63.2515C110.265 63.2515 109.851 62.9632 109.851 62.4993C109.851 61.8474 110.415 61.5967 111.668 61.3334L112.759 61.1078V61.6845ZM114.929 64.1416C115.193 64.2043 115.481 64.2293 115.769 64.2293C117.299 64.1666 117.599 63.3769 117.637 60.7944L117.662 58.9766H119.918V64.1541H121.297V57.8609H116.408L116.384 60.7693C116.346 62.725 116.27 63.0258 115.531 63.076C115.468 63.076 115.305 63.0634 115.055 63.0258L114.929 64.1416ZM122.888 64.1541H125.922C127.377 64.1541 128.342 63.3392 128.342 61.9979C128.342 60.6565 127.377 59.8416 125.922 59.8416H124.267V57.8609H122.888V64.1541ZM124.267 63.0258V60.9699H125.734C126.537 60.9699 126.938 61.3084 126.938 61.9979C126.938 62.6874 126.537 63.0258 125.734 63.0258H124.267ZM134.977 64.1541V57.8609H133.598V60.318H130.891V57.8609H129.512V64.1541H130.891V61.4463H133.598V64.1541H134.977ZM136.588 64.1541H139.622C141.075 64.1541 142.041 63.3392 142.041 61.9979C142.041 60.6565 141.075 59.8416 139.622 59.8416H137.967V57.8609H136.588V64.1541ZM137.967 63.0258V60.9699H139.434C140.236 60.9699 140.637 61.3084 140.637 61.9979C140.637 62.6874 140.236 63.0258 139.434 63.0258H137.967ZM144.16 57.8609H142.781V64.1541H144.16V57.8609ZM151.499 57.8609V64.1541H150.208V61.8474C150.208 60.7192 150.221 59.8416 150.258 59.2148C149.794 60.0046 149.368 60.7317 148.979 61.371L147.262 64.1541H145.758V57.8609H147.036V60.2929C147.036 61.2081 147.024 62.048 146.998 62.7876C147.537 61.8349 147.964 61.1203 148.265 60.6314L149.994 57.8609H151.499ZM150.747 55.3536H149.631C149.631 55.9428 149.28 56.2562 148.628 56.2562C147.976 56.2562 147.625 55.9428 147.625 55.3536H146.497C146.497 56.5446 147.325 57.1087 148.628 57.1087C149.919 57.1087 150.747 56.5446 150.747 55.3536ZM155.894 64.1541H157.273V58.9766H159.906V64.1541H161.285V57.8609H155.894V64.1541ZM168.174 59.8542C168.174 58.5128 167.222 57.6603 165.517 57.6603C164.351 57.6603 163.461 58.0991 162.671 59.0393L163.536 59.8416C164.288 59.0894 164.765 58.8011 165.555 58.8011C166.357 58.8011 166.858 59.1897 166.858 59.8792V60.1049L165.416 60.3681C164.527 60.5311 163.838 60.7818 163.336 61.1078C162.847 61.4212 162.596 61.9101 162.596 62.5745C162.596 63.778 163.549 64.3547 164.852 64.3547C165.805 64.3547 166.533 64.0287 166.934 63.4395V64.1541H168.174V59.8542ZM166.858 61.6845C166.858 62.6874 166.069 63.2515 165.053 63.2515C164.364 63.2515 163.95 62.9632 163.95 62.4993C163.95 61.8474 164.514 61.5967 165.768 61.3334L166.858 61.1078V61.6845ZM175.858 60.995C175.858 59.0142 174.693 57.6854 173.075 57.6854C172.147 57.6854 171.458 58.0364 170.994 58.751V57.8609H169.715V66.4106H171.094V63.427C171.546 64.0162 172.197 64.3171 173.063 64.3171C174.667 64.3171 175.858 63.0008 175.858 60.995ZM174.454 60.995C174.454 62.2862 173.79 63.1261 172.787 63.1261C171.771 63.1261 171.032 62.3113 171.032 60.995C171.032 59.6912 171.747 58.8638 172.787 58.8638C173.802 58.8638 174.454 59.7037 174.454 60.995ZM181.868 58.9766V57.8609H176.314V58.9766H178.395V64.1541H179.774V58.9766H181.868ZM188.391 64.1541V57.8609H187.012V60.318H184.304V57.8609H182.925V64.1541H184.304V61.4463H187.012V64.1541H188.391ZM194.828 62.2361C194.038 62.9381 193.612 63.1763 192.873 63.1763C191.719 63.1763 191.079 62.4241 190.979 61.3209H195.592C195.605 61.1579 195.618 60.9699 195.618 60.7568C195.618 58.8387 194.578 57.6603 192.722 57.6603C190.829 57.6603 189.626 59.0769 189.626 61.0451C189.626 63.0384 190.854 64.3422 192.847 64.3422C193.9 64.3422 194.728 63.9911 195.631 63.076L194.828 62.2361ZM191.017 60.318C191.205 59.3276 191.782 58.751 192.685 58.751C193.637 58.751 194.213 59.3527 194.264 60.318H191.017ZM203 60.995C203 59.0142 201.834 57.6854 200.217 57.6854C199.289 57.6854 198.6 58.0364 198.135 58.751V57.8609H196.857V66.4106H198.236V63.427C198.687 64.0162 199.339 64.3171 200.204 64.3171C201.809 64.3171 203 63.0008 203 60.995ZM201.596 60.995C201.596 62.2862 200.932 63.1261 199.929 63.1261C198.913 63.1261 198.174 62.3113 198.174 60.995C198.174 59.6912 198.888 58.8638 199.929 58.8638C200.943 58.8638 201.596 59.7037 201.596 60.995Z" fill="#CCCCCC"/>
<g clip-path="url(#clip0_2116_5983)">
<path d="M23.1431 6.33203L16.3374 15.9339L9.53182 6.33203H0L11.5666 22.6611L0 39H9.53182L16.3374 29.3883L23.1431 39H32.665L21.0984 22.6611L32.665 6.33203H23.1431Z" fill="white"/>
<path d="M43.6488 6.33203L33.2083 39H42.3648L44.0538 32.6086H53.2794L54.9685 39H64.0756L53.6844 6.33203H43.6587H43.6488ZM45.6342 26.6223L48.6666 15.1238L51.699 26.6223H45.6243H45.6342Z" fill="white"/>
<path d="M75.9385 26.2074V6.33203H66.9697V39H72.3925C74.3087 39 76.0768 37.9924 77.0646 36.3525L87.3965 19.1246V39H96.3653V6.33203H87.9891L75.9385 26.2074Z" fill="white"/>
<path d="M99.8915 14.1557H109.868V39H118.837V14.1557H128.773V6.33203H99.8915V14.1557Z" fill="white"/>
<path d="M183.436 22.108L194.933 6.32227H185.085L176.67 18.3344H174.832V6.33214H165.903V39.0001H174.832V26.4841C175.751 26.4841 176.62 26.9287 177.154 27.6893L183.515 36.6984C184.532 38.1407 186.192 39.0001 187.96 39.0001H196L183.436 22.1179V22.108Z" fill="white"/>
<path d="M81.6675 6.33207C84.8876 6.33207 87.6533 4.35638 88.7892 1.54103L84.9962 0C84.4727 1.31383 83.1689 2.2424 81.6675 2.2424C80.1661 2.2424 78.8623 1.31383 78.319 0L74.5458 1.54103C75.6916 4.35638 78.4474 6.33207 81.6675 6.33207Z" fill="white"/>
<path d="M142.967 26.9285V26.0197H157.557V18.7492H142.967V14.1557H159.582V6.33203H133.999V12.101V14.1557V18.7393V26.9285V39H159.996V31.1763H142.967V26.9285Z" fill="white"/>
</g>
<defs>
<clipPath id="clip0_2116_5983">
<rect width="196" height="39" fill="white"/>
</clipPath>
</defs>
</svg>
