<svg width="105" height="105" viewBox="0 0 105 105" fill="none" xmlns="http://www.w3.org/2000/svg">
<path d="M54.4609 32C54.4609 43.0457 63.4152 52 74.4609 52H103.04C104.122 52 105 52.8777 105 53.9604C105 55.0432 104.122 55.9209 103.04 55.9209H74.4609C63.4152 55.9209 54.4609 64.8752 54.4609 75.9209V103.039C54.4609 104.122 53.583 105 52.5 105C51.417 105 50.5391 104.122 50.5391 103.039V75.9209C50.5391 64.8752 41.5848 55.9209 30.5391 55.9209H1.96045C0.877723 55.9209 0 55.0432 0 53.9604C0 52.8777 0.877723 52 1.96045 52H30.5391C41.5848 52 50.5391 43.0457 50.5391 32V1.96094C50.5391 0.87794 51.417 0 52.5 0C53.583 0 54.4609 0.877942 54.4609 1.96094V32Z" fill="white"/>
</svg>
