<svg width="30" height="30" viewBox="0 0 30 30" fill="none" xmlns="http://www.w3.org/2000/svg">
<g clip-path="url(#clip0_797_4903)">
<path d="M22.5 0H7.5C3.35786 0 0 3.35786 0 7.5V22.5C0 26.6421 3.35786 30 7.5 30H22.5C26.6421 30 30 26.6421 30 22.5V7.5C30 3.35786 26.6421 0 22.5 0Z" fill="#00CCAE"/>
<path fill-rule="evenodd" clip-rule="evenodd" d="M7.14288 9.29502C6.22963 9.63889 5.625 10.5126 5.625 11.4885V19.999C5.625 20.9817 6.60715 21.6614 7.52677 21.3151L9.84375 20.4427V24.2178C9.84375 25.2005 10.8259 25.8801 11.7456 25.5338L23.3258 21.1736C24.2392 20.8297 24.8438 19.956 24.8438 18.9801V10.4695C24.8438 9.48692 23.8616 8.80723 22.9419 9.15349L20.625 10.0259V6.25079C20.625 5.26814 19.6429 4.58848 18.7232 4.93474L7.14288 9.29502Z" fill="white"/>
<path d="M19.4531 14.7656L11.262 17.865C11.074 17.9361 11.0569 18.1953 11.2338 18.2905L13.8281 19.6875" stroke="#222222" stroke-width="1.3" stroke-linecap="round" stroke-linejoin="round"/>
<path d="M10.7812 15.4688L18.9724 12.3694C19.1603 12.2983 19.1775 12.0391 19.0006 11.9438L16.4062 10.5469" stroke="#222222" stroke-width="1.3" stroke-linecap="round" stroke-linejoin="round"/>
</g>
<defs>
<clipPath id="clip0_797_4903">
<rect width="30" height="30" fill="white"/>
</clipPath>
</defs>
</svg>
