<svg width="26" height="24" viewBox="0 0 26 24" fill="none" xmlns="http://www.w3.org/2000/svg">
<path d="M15.5179 20.9441H10.4477C9.52467 20.9441 9.52467 19.5494 10.4477 19.5494H15.5179C16.4409 19.5494 16.4409 20.9441 15.5179 20.9441ZM19.1845 23.7363H6.7808C5.85781 23.7363 5.85781 22.3416 6.7808 22.3416H19.1845C20.1075 22.3416 20.1075 23.7363 19.1845 23.7363ZM12.2856 0.26355C9.21163 0.429986 6.44359 1.67252 4.31401 3.59165L6.97172 6.24936C8.38782 5.01829 10.2019 4.18394 12.2856 4.02959V0.26355ZM3.76883 12.5494C3.91698 10.5178 4.71755 8.7177 5.98674 7.23682L3.32283 4.57291C1.39069 6.71892 0.162097 9.42652 0 12.5494H3.76883ZM3.76263 13.9442H0C0.14567 16.6865 1.12507 19.2075 2.70947 21.2419C2.95153 21.5525 3.4121 21.5863 3.71242 21.3315L5.51254 19.8066C5.80512 19.5587 5.83394 19.1316 5.60242 18.8257C4.53113 17.41 3.89219 15.7147 3.76263 13.9442ZM24.119 6.51746C23.4898 7.29013 22.556 8.43597 21.5121 9.71446C21.9674 10.8042 22.2343 11.9916 22.2343 13.2468C22.2374 15.2741 21.5717 17.2459 20.3402 18.8564C20.1158 19.1502 20.1794 19.5732 20.462 19.8113L22.2541 21.3197C22.5581 21.5757 23.0237 21.5407 23.2676 21.2268C25.0428 18.9458 26.0046 16.1369 26 13.2465C26.0003 10.7447 25.2998 8.4589 24.119 6.51746ZM23.289 5.32637C21.0094 2.38476 17.5232 0.471827 13.6803 0.264479V4.033C16.0702 4.21525 18.5252 5.32916 20.2683 7.55822C20.2683 7.55822 11.9651 13.7216 11.6697 14.0173C11.3469 14.3441 11.1666 14.7854 11.168 15.2448C11.1694 15.7041 11.3525 16.1442 11.6773 16.4691C12.0022 16.7939 12.4423 16.977 12.9017 16.9784C13.361 16.9798 13.8023 16.7995 14.1291 16.4767C14.5692 16.0362 23.289 5.32637 23.289 5.32637Z" fill="#FE4C4C"/>
</svg>
