<svg width="74" height="74" viewBox="0 0 74 74" fill="none" xmlns="http://www.w3.org/2000/svg">
<g clip-path="url(#clip0_2413_2921)">
<path d="M55.5 0H18.5C8.28273 0 0 8.28273 0 18.5V55.5C0 65.7173 8.28273 74 18.5 74H55.5C65.7173 74 74 65.7173 74 55.5V18.5C74 8.28273 65.7173 0 55.5 0Z" fill="#FF8227"/>
<path d="M37 62.4081C51.0487 62.4081 62.4375 51.0194 62.4375 36.9706C62.4375 22.9219 51.0487 11.5331 37 11.5331C22.9513 11.5331 11.5625 22.9219 11.5625 36.9706C11.5625 51.0194 22.9513 62.4081 37 62.4081Z" fill="white"/>
<path d="M25.4375 36.6092L32.1056 43.5999C33.479 45.0396 35.7793 45.0314 37.1424 43.582L52.0312 27.75" stroke="#222222" stroke-width="2.3" stroke-linecap="round" stroke-linejoin="round"/>
</g>
<defs>
<clipPath id="clip0_2413_2921">
<rect width="74" height="74" fill="white"/>
</clipPath>
</defs>
</svg>
