<svg width="30" height="30" viewBox="0 0 30 30" fill="none" xmlns="http://www.w3.org/2000/svg">
<g clip-path="url(#clip0_797_4765)">
<path d="M22.5 0H7.5C3.35786 0 0 3.35786 0 7.5V22.5C0 26.6421 3.35786 30 7.5 30H22.5C26.6421 30 30 26.6421 30 22.5V7.5C30 3.35786 26.6421 0 22.5 0Z" fill="#3CBC5D"/>
<path fill-rule="evenodd" clip-rule="evenodd" d="M5.0563 12.0168C3.40878 13.6643 3.40878 16.3355 5.0563 17.983L12.0169 24.9436C13.6644 26.5911 16.3356 26.5911 17.9831 24.9436L24.9437 17.983C26.5912 16.3355 26.5912 13.6643 24.9437 12.0168L17.9831 5.0562C16.3356 3.40868 13.6644 3.40868 12.0169 5.0562L5.0563 12.0168Z" fill="white"/>
<path fill-rule="evenodd" clip-rule="evenodd" d="M22.1709 13.4748C22.1709 12.4132 21.3107 11.553 20.2491 11.553C19.1874 11.553 18.3272 12.4132 18.3272 13.4748C18.3272 14.5364 19.1874 15.3966 20.2491 15.3966C21.3107 15.3966 22.1709 14.5364 22.1709 13.4748Z" stroke="#222222" stroke-width="2"/>
<path fill-rule="evenodd" clip-rule="evenodd" d="M16.8082 19.1128C16.8082 17.9153 15.8369 16.9448 14.6402 16.9448C13.4428 16.9448 12.4722 17.9153 12.4722 19.1128C12.4722 20.3102 13.4428 21.2808 14.6402 21.2808C15.8369 21.2808 16.8082 20.3102 16.8082 19.1128Z" stroke="#222222" stroke-width="2"/>
<path fill-rule="evenodd" clip-rule="evenodd" d="M11.3796 14.8755C11.3796 13.8139 10.5193 12.9536 9.45769 12.9536C8.39606 12.9536 7.53581 13.8139 7.53581 14.8755C7.53581 15.9371 8.39606 16.7974 9.45769 16.7974C10.5193 16.7974 11.3796 15.9371 11.3796 14.8755Z" stroke="#222222" stroke-width="2"/>
<path d="M16.1889 17.5937L18.9208 14.8618" stroke="#222222" stroke-width="2"/>
<path d="M12.6622 17.8184L10.7812 15.9375" stroke="#222222" stroke-width="2"/>
</g>
<defs>
<clipPath id="clip0_797_4765">
<rect width="30" height="30" fill="white"/>
</clipPath>
</defs>
</svg>
