<svg width="74" height="74" viewBox="0 0 74 74" fill="none" xmlns="http://www.w3.org/2000/svg">
<g clip-path="url(#clip0_2413_3492)">
<path d="M55.5 0H18.5C8.28273 0 0 8.28273 0 18.5V55.5C0 65.7173 8.28273 74 18.5 74H55.5C65.7173 74 74 65.7173 74 55.5V18.5C74 8.28273 65.7173 0 55.5 0Z" fill="#3CBC5D"/>
<path fill-rule="evenodd" clip-rule="evenodd" d="M12.4722 29.6416C8.40835 33.7054 8.40835 40.2944 12.4722 44.3582L29.6416 61.5276C33.7056 65.5916 40.2944 65.5916 44.3584 61.5276L61.5278 44.3582C65.5916 40.2944 65.5916 33.7054 61.5278 29.6416L44.3584 12.4721C40.2944 8.40822 33.7056 8.40822 29.6416 12.4721L12.4722 29.6416Z" fill="white"/>
<path fill-rule="evenodd" clip-rule="evenodd" d="M54.6883 33.238C54.6883 30.6193 52.5665 28.4975 49.9478 28.4975C47.3291 28.4975 45.2072 30.6193 45.2072 33.238C45.2072 35.8566 47.3291 37.9784 49.9478 37.9784C52.5665 37.9784 54.6883 35.8566 54.6883 33.238Z" stroke="#222222" stroke-width="2"/>
<path fill-rule="evenodd" clip-rule="evenodd" d="M41.4602 47.1451C41.4602 44.1914 39.0645 41.7975 36.1126 41.7975C33.1589 41.7975 30.7649 44.1914 30.7649 47.1451C30.7649 50.0987 33.1589 52.4928 36.1126 52.4928C39.0645 52.4928 41.4602 50.0987 41.4602 47.1451Z" stroke="#222222" stroke-width="2"/>
<path fill-rule="evenodd" clip-rule="evenodd" d="M28.0696 36.693C28.0696 34.0743 25.9477 31.9524 23.329 31.9524C20.7103 31.9524 18.5884 34.0743 18.5884 36.693C18.5884 39.3117 20.7103 41.4336 23.329 41.4336C25.9477 41.4336 28.0696 39.3117 28.0696 36.693Z" stroke="#222222" stroke-width="2"/>
<path d="M39.9327 43.398L46.6714 36.6594" stroke="#222222" stroke-width="2"/>
<path d="M31.2334 43.9521L26.5938 39.3125" stroke="#222222" stroke-width="2"/>
</g>
<defs>
<clipPath id="clip0_2413_3492">
<rect width="74" height="74" fill="white"/>
</clipPath>
</defs>
</svg>
