<svg width="30" height="30" viewBox="0 0 30 30" fill="none" xmlns="http://www.w3.org/2000/svg">
<g clip-path="url(#clip0_797_4858)">
<path d="M22.5 0H7.5C3.35786 0 0 3.35786 0 7.5V22.5C0 26.6421 3.35786 30 7.5 30H22.5C26.6421 30 30 26.6421 30 22.5V7.5C30 3.35786 26.6421 0 22.5 0Z" fill="#00CCAE"/>
<path fill-rule="evenodd" clip-rule="evenodd" d="M6.11469 8.36709C5.53757 8.59101 5.15729 9.14647 5.15729 9.76555V11.4647C5.15729 20.9412 12.5861 24.6529 14.5319 25.4625C14.8309 25.5869 15.1568 25.587 15.4558 25.4626C17.4019 24.6531 24.8328 20.9414 24.831 11.4647C24.8468 11.1381 24.8464 10.3836 24.8425 9.75112C24.8388 9.1392 24.4595 8.59362 23.8889 8.37233L16.1693 5.37793C15.4132 5.0846 14.5746 5.08464 13.8184 5.37804L6.11469 8.36709Z" fill="white"/>
<path fill-rule="evenodd" clip-rule="evenodd" d="M15.4219 9.37812C15.2826 9.3678 15.1419 9.36255 15 9.36255C11.8865 9.36255 9.36249 11.8866 9.36249 15C9.36249 18.1136 11.8865 20.6376 15 20.6376C15.1419 20.6376 15.2826 20.6323 15.4219 20.622V20.5969C15.2826 20.6073 15.1419 20.6126 15 20.6126C11.9003 20.6126 9.38746 18.0998 9.38746 15C9.38746 11.9004 11.9003 9.38759 15 9.38759C15.1419 9.38759 15.2826 9.39284 15.4219 9.40315V9.37812Z" fill="#222222"/>
<path d="M15.4219 9.37812H16.0312C16.0312 9.059 15.7851 8.79393 15.4668 8.77039L15.4219 9.37812ZM15.4219 20.622L15.4668 21.2297C15.7851 21.2062 16.0312 20.9412 16.0312 20.622H15.4219ZM15.4219 20.5969H16.0312C16.0312 20.4275 15.9606 20.2657 15.8365 20.1504C15.7123 20.0351 15.5457 19.9767 15.3767 19.9892L15.4219 20.5969ZM15.4219 9.40315L15.3767 10.0108C15.5457 10.0234 15.7123 9.96509 15.8365 9.84978C15.9606 9.73446 16.0312 9.57265 16.0312 9.40315H15.4219ZM15 9.97193C15.1269 9.97193 15.2526 9.97662 15.3769 9.98581L15.4668 8.77039C15.3126 8.75898 15.1569 8.75317 15 8.75317V9.97193ZM9.9719 15C9.9719 12.2231 12.223 9.97193 15 9.97193V8.75317C11.5499 8.75317 8.75311 11.55 8.75311 15H9.9719ZM15 20.0282C12.223 20.0282 9.9719 17.777 9.9719 15H8.75311C8.75311 18.4501 11.5499 21.247 15 21.247V20.0282ZM15.3769 20.0142C15.2526 20.0235 15.1268 20.0282 15 20.0282V21.247C15.1569 21.247 15.3126 21.2412 15.4668 21.2297L15.3769 20.0142ZM16.0312 20.622V20.5969H14.8125V20.622H16.0312ZM15 21.2219C15.157 21.2219 15.3127 21.2161 15.4671 21.2046L15.3767 19.9892C15.2525 19.9985 15.1268 20.0032 15 20.0032V21.2219ZM8.77812 15C8.77812 18.4363 11.5638 21.2219 15 21.2219V20.0032C12.2368 20.0032 9.99684 17.7632 9.99684 15H8.77812ZM15 8.77818C11.5638 8.77818 8.77812 11.5638 8.77812 15H9.99684C9.99684 12.2369 12.2368 9.99696 15 9.99696V8.77818ZM15.4671 8.79547C15.3127 8.78401 15.157 8.77818 15 8.77818V9.99696C15.1268 9.99696 15.2525 10.0017 15.3767 10.0108L15.4671 8.79547ZM16.0312 9.40315V9.37812H14.8125V9.40315H16.0312Z" fill="#222222"/>
<path fill-rule="evenodd" clip-rule="evenodd" d="M15.2344 11.7955C15.157 11.7899 15.0789 11.7871 15 11.7871C13.2255 11.7871 11.7869 13.2256 11.7869 15.0001C11.7869 16.7746 13.2255 18.2132 15 18.2132C15.0789 18.2132 15.157 18.2104 15.2344 18.2048V18.1797C15.157 18.1854 15.0789 18.1882 15 18.1882C13.2393 18.1882 11.812 16.7608 11.812 15.0001C11.812 13.2394 13.2393 11.812 15 11.812C15.0789 11.812 15.157 11.815 15.2344 11.8206V11.7955Z" fill="#222222"/>
<path d="M15.2344 11.7955H15.8438C15.8438 11.476 15.5969 11.2106 15.2782 11.1877L15.2344 11.7955ZM15.2344 18.2048L15.2782 18.8125C15.5969 18.7896 15.8438 18.5244 15.8438 18.2048H15.2344ZM15.2344 18.1797H15.8438C15.8438 18.0104 15.7734 17.8488 15.6493 17.7335C15.5254 17.6182 15.3591 17.5597 15.1902 17.572L15.2344 18.1797ZM15.2344 11.8206L15.1902 12.4284C15.3591 12.4405 15.5254 12.382 15.6493 12.2668C15.7734 12.1515 15.8438 11.9898 15.8438 11.8206H15.2344ZM15 12.3965C15.0642 12.3965 15.1277 12.3987 15.1906 12.4033L15.2782 11.1877C15.1862 11.181 15.0935 11.1777 15 11.1777V12.3965ZM12.3963 15.0001C12.3963 13.5622 13.562 12.3965 15 12.3965V11.1777C12.889 11.1777 11.1776 12.889 11.1776 15.0001H12.3963ZM15 17.6038C13.562 17.6038 12.3963 16.4381 12.3963 15.0001H11.1776C11.1776 17.1112 12.889 18.8226 15 18.8226V17.6038ZM15.1906 17.597C15.1277 17.6015 15.0642 17.6038 15 17.6038V18.8226C15.0935 18.8226 15.1862 18.8192 15.2782 18.8125L15.1906 17.597ZM15.8438 18.2048V18.1797H14.625V18.2048H15.8438ZM15 18.7975C15.0936 18.7975 15.1865 18.7942 15.2786 18.7875L15.1902 17.572C15.1275 17.5765 15.0641 17.5788 15 17.5788V18.7975ZM11.2026 15.0001C11.2026 17.0974 12.9027 18.7975 15 18.7975V17.5788C13.5759 17.5788 12.4213 16.4243 12.4213 15.0001H11.2026ZM15 11.2027C12.9027 11.2027 11.2026 12.9028 11.2026 15.0001H12.4213C12.4213 13.576 13.5759 12.4214 15 12.4214V11.2027ZM15.2786 11.2128C15.1865 11.206 15.0936 11.2027 15 11.2027V12.4214C15.0641 12.4214 15.1275 12.4238 15.1902 12.4284L15.2786 11.2128ZM15.8438 11.8206V11.7955H14.625V11.8206H15.8438Z" fill="#222222"/>
</g>
<defs>
<clipPath id="clip0_797_4858">
<rect width="30" height="30" fill="white"/>
</clipPath>
</defs>
</svg>
