<svg width="30" height="30" viewBox="0 0 30 30" fill="none" xmlns="http://www.w3.org/2000/svg">
<g clip-path="url(#clip0_797_4948)">
<path d="M22.5 0H7.5C3.35786 0 0 3.35786 0 7.5V22.5C0 26.6421 3.35786 30 7.5 30H22.5C26.6421 30 30 26.6421 30 22.5V7.5C30 3.35786 26.6421 0 22.5 0Z" fill="#51ADFF"/>
<path d="M20.625 5.625H9.375C7.30393 5.625 5.625 7.30393 5.625 9.375V20.625C5.625 22.6961 7.30393 24.375 9.375 24.375H20.625C22.6961 24.375 24.375 22.6961 24.375 20.625V9.375C24.375 7.30393 22.6961 5.625 20.625 5.625Z" fill="white"/>
<path d="M10.7812 15.4688V12.6562" stroke="#222222" stroke-width="1.1" stroke-linecap="round" stroke-linejoin="round"/>
<path d="M15.4688 19.2188V17.3438" stroke="#222222" stroke-width="1.1" stroke-linecap="round" stroke-linejoin="round"/>
<path d="M19.2188 17.3438H21.0938" stroke="#222222" stroke-width="1.1" stroke-linecap="round" stroke-linejoin="round"/>
<path d="M10.7812 17.3438H13.5938" stroke="#222222" stroke-width="1.1" stroke-linecap="round" stroke-linejoin="round"/>
<path d="M17.3438 15.4688H19.6875" stroke="#222222" stroke-width="1.1" stroke-linecap="round" stroke-linejoin="round"/>
<path d="M12.6562 15.4688H15.2188C15.3568 15.4688 15.4688 15.3568 15.4688 15.2187V13.5938" stroke="#222222" stroke-width="1.1" stroke-linecap="round" stroke-linejoin="round"/>
<path d="M14.5312 10.7812H17.3438" stroke="#222222" stroke-width="1.1" stroke-linecap="round" stroke-linejoin="round"/>
<path d="M12.6562 13.5938H13.5938" stroke="#222222" stroke-width="1.1" stroke-linecap="round" stroke-linejoin="round"/>
<path d="M21.0938 13.5938H19.4688C19.3307 13.5938 19.2188 13.4818 19.2188 13.3437V11.25" stroke="#222222" stroke-width="1.1" stroke-linecap="round" stroke-linejoin="round"/>
<path d="M10.7812 8.90625H12.6562M12.6562 8.90625H15.4688M12.6562 8.90625V11.7188" stroke="#222222" stroke-width="1.1" stroke-linecap="round" stroke-linejoin="round"/>
<path d="M19.2188 8.90625H20.625C20.8838 8.90625 21.0938 9.11612 21.0938 9.375V11.7188" stroke="#222222" stroke-width="1.1" stroke-linecap="round" stroke-linejoin="round"/>
<path d="M8.90625 8.90625V20.0938C8.90625 20.6461 9.35396 21.0938 9.90628 21.0938H21.0938" stroke="#222222" stroke-width="1.1" stroke-linecap="round" stroke-linejoin="round"/>
<path d="M17.3438 9.44654C17.6421 9.44654 17.884 9.20464 17.884 8.90625C17.884 8.60786 17.6421 8.36597 17.3438 8.36597C17.0454 8.36597 16.8035 8.60786 16.8035 8.90625C16.8035 9.20464 17.0454 9.44654 17.3438 9.44654Z" fill="#222222"/>
<path d="M17.3438 14.134C17.6421 14.134 17.884 13.8921 17.884 13.5938C17.884 13.2954 17.6421 13.0535 17.3438 13.0535C17.0454 13.0535 16.8035 13.2954 16.8035 13.5938C16.8035 13.8921 17.0454 14.134 17.3438 14.134Z" fill="#222222"/>
<path d="M17.3438 17.884C17.6421 17.884 17.884 17.6421 17.884 17.3437C17.884 17.0454 17.6421 16.8035 17.3438 16.8035C17.0454 16.8035 16.8035 17.0454 16.8035 17.3437C16.8035 17.6421 17.0454 17.884 17.3438 17.884Z" fill="#222222"/>
<path d="M19.2188 19.759C19.5171 19.759 19.759 19.5171 19.759 19.2187C19.759 18.9204 19.5171 18.6785 19.2188 18.6785C18.9204 18.6785 18.6785 18.9204 18.6785 19.2187C18.6785 19.5171 18.9204 19.759 19.2188 19.759Z" fill="#222222"/>
<path d="M10.7812 19.759C11.0796 19.759 11.3215 19.5171 11.3215 19.2187C11.3215 18.9204 11.0796 18.6785 10.7812 18.6785C10.4829 18.6785 10.241 18.9204 10.241 19.2187C10.241 19.5171 10.4829 19.759 10.7812 19.759Z" fill="#222222"/>
<path d="M10.7812 11.3215C11.0796 11.3215 11.3215 11.0796 11.3215 10.7813C11.3215 10.4829 11.0796 10.241 10.7812 10.241C10.4829 10.241 10.241 10.4829 10.241 10.7813C10.241 11.0796 10.4829 11.3215 10.7812 11.3215Z" fill="#222222"/>
<path d="M12.6562 19.759C12.9546 19.759 13.1965 19.5171 13.1965 19.2187C13.1965 18.9204 12.9546 18.6785 12.6562 18.6785C12.3579 18.6785 12.116 18.9204 12.116 19.2187C12.116 19.5171 12.3579 19.759 12.6562 19.759Z" fill="#222222"/>
</g>
<defs>
<clipPath id="clip0_797_4948">
<rect width="30" height="30" fill="white"/>
</clipPath>
</defs>
</svg>
