<svg width="74" height="74" viewBox="0 0 74 74" fill="none" xmlns="http://www.w3.org/2000/svg">
<g clip-path="url(#clip0_2413_3952)">
<path d="M55.5 0H18.5C8.28273 0 0 8.28273 0 18.5V55.5C0 65.7173 8.28273 74 18.5 74H55.5C65.7173 74 74 65.7173 74 55.5V18.5C74 8.28273 65.7173 0 55.5 0Z" fill="#51ADFF"/>
<path d="M11.7189 53.2283C11.3211 56.0144 13.4831 58.5071 16.2975 58.5071H57.7026C60.5171 58.5071 62.679 56.0144 62.2812 53.2283L57.4597 19.464C57.1342 17.1854 55.1828 15.4928 52.8811 15.4928H21.119C18.8173 15.4928 16.8659 17.1854 16.5404 19.464L11.7189 53.2283Z" fill="white"/>
<path d="M50.0176 25.0516C48.1613 30.6133 43.0343 34.6102 37.0001 34.6102C30.9658 34.6102 25.8389 30.6133 23.9825 25.0516" stroke="#222222" stroke-width="2" stroke-linecap="round" stroke-linejoin="round"/>
</g>
<defs>
<clipPath id="clip0_2413_3952">
<rect width="74" height="74" fill="white"/>
</clipPath>
</defs>
</svg>
