<svg width="30" height="30" viewBox="0 0 30 30" fill="none" xmlns="http://www.w3.org/2000/svg">
<g clip-path="url(#clip0_797_4888)">
<path d="M22.5 0H7.5C3.35786 0 0 3.35786 0 7.5V22.5C0 26.6421 3.35786 30 7.5 30H22.5C26.6421 30 30 26.6421 30 22.5V7.5C30 3.35786 26.6421 0 22.5 0Z" fill="#2290FF"/>
<path d="M4.75087 21.5789C4.58957 22.7085 5.46605 23.719 6.60703 23.719H23.3929C24.5339 23.719 25.4103 22.7085 25.2491 21.5789L23.2944 7.8907C23.1625 6.96695 22.3713 6.28076 21.4382 6.28076H8.56172C7.62859 6.28076 6.83747 6.96695 6.70553 7.8907L4.75087 21.5789Z" fill="white"/>
<path d="M20.2773 10.156C19.5247 12.4108 17.4462 14.0311 14.9999 14.0311C12.5536 14.0311 10.4751 12.4108 9.72253 10.156" stroke="#222222" stroke-width="2" stroke-linecap="round" stroke-linejoin="round"/>
</g>
<defs>
<clipPath id="clip0_797_4888">
<rect width="30" height="30" fill="white"/>
</clipPath>
</defs>
</svg>
