<svg width="30" height="30" viewBox="0 0 30 30" fill="none" xmlns="http://www.w3.org/2000/svg">
<g clip-path="url(#clip0_797_4978)">
<path d="M22.5 0H7.5C3.35786 0 0 3.35786 0 7.5V22.5C0 26.6421 3.35786 30 7.5 30H22.5C26.6421 30 30 26.6421 30 22.5V7.5C30 3.35786 26.6421 0 22.5 0Z" fill="#2290FF"/>
<path fill-rule="evenodd" clip-rule="evenodd" d="M19.5593 19.3038C21.2171 17.8834 23.1515 16.2262 23.4124 12.8406C23.7869 7.98114 19.921 4.21875 15 4.21875C10.079 4.21875 6.21308 7.98114 6.58759 12.8406C6.84851 16.2262 8.78289 17.8834 10.4408 19.3038C11.2186 19.9703 11.9356 20.5845 12.3904 21.3007C11.9874 21.548 11.7188 21.9926 11.7188 22.5V24.8438C11.7188 25.6204 12.3484 26.25 13.125 26.25H16.875C17.6516 26.25 18.2813 25.6204 18.2813 24.8438V22.5C18.2813 21.9926 18.0126 21.548 17.6096 21.3007C18.0644 20.5845 18.7814 19.9703 19.5593 19.3038Z" fill="white"/>
<path d="M13.5938 21.0938H16.4062" stroke="#222222" stroke-width="1.3" stroke-linecap="round" stroke-linejoin="round"/>
</g>
<defs>
<clipPath id="clip0_797_4978">
<rect width="30" height="30" fill="white"/>
</clipPath>
</defs>
</svg>
