<svg width="24" height="24" viewBox="0 0 24 24" fill="none" xmlns="http://www.w3.org/2000/svg">
<path d="M19.2696 9.35657C19.4035 9.7258 19.8106 9.90819 20.1705 9.7768L22.825 8.81071C23.1896 8.6782 23.3729 8.27789 23.2411 7.91325C23.1107 7.55072 22.7117 7.36186 22.3444 7.4896H22.3437C22.3348 7.49096 22.3313 7.49372 22.3258 7.49644L19.6898 8.45568C19.3245 8.5882 19.1364 8.99193 19.2696 9.35657ZM20.178 4.22599L18.013 6.04285C17.7156 6.29209 17.6765 6.73566 17.9264 7.03299C18.1717 7.3268 18.6148 7.37255 18.9166 7.11952L21.0816 5.30266C21.3789 5.05342 21.418 4.60985 21.1681 4.31252C20.9196 4.01585 20.4773 3.97671 20.178 4.22599ZM17.9869 1.64211C17.6511 1.44712 17.2206 1.56313 17.0263 1.8996L15.6132 4.34749C15.4189 4.68396 15.5342 5.1138 15.8707 5.30809C16.2039 5.50061 16.6351 5.38928 16.8313 5.05061L18.2444 2.60272C18.4387 2.2663 18.3234 1.83646 17.9869 1.64211ZM14.163 3.81949L14.654 0.989665C14.7219 0.607214 14.4665 0.242622 14.0841 0.17531C13.6982 0.102514 13.3363 0.362762 13.2697 0.745213L12.7787 3.57504C12.7108 3.95749 12.9662 4.32213 13.3486 4.3894C13.7247 4.4583 14.0954 4.20555 14.163 3.81949ZM9.52267 12.1038C8.78796 12.5556 7.78137 13.1736 7.78137 14.8126C7.78137 15.2012 8.09585 15.5157 8.48449 15.5157H11.297C11.6856 15.5157 12.0001 15.2012 12.0001 14.8126C12.0001 14.424 11.6856 14.1095 11.297 14.1095H9.32702C9.49042 13.7888 9.79872 13.5849 10.2588 13.3027C10.9935 12.8508 12.0001 12.2329 12.0001 10.5939C12.0001 9.43073 11.0539 8.48451 9.89073 8.48451C8.72759 8.48451 7.78137 9.43073 7.78137 10.5939C7.78137 10.9825 8.09585 11.297 8.48449 11.297C8.87313 11.297 9.18761 10.9825 9.18761 10.5939C9.18761 10.2059 9.5028 9.89075 9.89073 9.89075C10.2787 9.89075 10.5939 10.2059 10.5939 10.5939C10.5939 11.4103 10.2464 11.6602 9.52267 12.1038Z" fill="#FE4C4C"/>
<path d="M12.1326 13.8176C12.1979 13.908 12.2836 13.9815 12.3828 14.0323C12.482 14.083 12.5918 14.1095 12.7032 14.1095H14.8126V14.8126C14.8126 15.2012 15.1271 15.5157 15.5157 15.5157C15.9044 15.5157 16.2189 15.2012 16.2189 14.8126V14.1095H16.922C17.3106 14.1095 17.6251 13.795 17.6251 13.4064C17.6251 13.0177 17.3106 12.7032 16.922 12.7032H16.2189V10.5939C16.2189 10.2052 15.9044 9.89073 15.5157 9.89073C15.1271 9.89073 14.8126 10.2052 14.8126 10.5939V12.7032H13.6789L14.7762 9.41008C14.8991 9.04136 14.7 8.64311 14.3319 8.52086C13.9618 8.39659 13.5656 8.59708 13.4427 8.96514L12.0364 13.1839C12.0011 13.2896 11.9914 13.4022 12.0081 13.5124C12.0248 13.6226 12.0675 13.7272 12.1326 13.8176Z" fill="#FE4C4C"/>
<path d="M23.2969 11.297H21.8906C21.5023 11.297 21.1875 11.6117 21.1875 12.0001C21.1875 17.0401 17.04 21.1876 12.0001 21.1876C6.96008 21.1876 2.81261 17.0401 2.81261 12.0001C2.81261 10.4265 3.26528 8.94894 3.96994 7.65608L4.83356 8.51952C5.01998 8.70594 5.29181 8.76964 5.53462 8.6953C5.65636 8.65841 5.76581 8.58918 5.8513 8.49498C5.93679 8.40078 5.99512 8.28515 6.02006 8.16041L7.01432 3.18911C7.0603 2.95839 6.98821 2.72013 6.82204 2.55396C6.65586 2.38779 6.4169 2.31912 6.18688 2.36168L1.21497 3.35598C1.09024 3.38092 0.974602 3.43925 0.880404 3.52474C0.786205 3.61023 0.716973 3.71968 0.680087 3.84142C0.643257 3.96325 0.640154 4.09278 0.671108 4.21624C0.702062 4.33969 0.765914 4.45244 0.855867 4.54248L1.91345 5.59992C0.73329 7.4489 0.00012207 9.64263 0.00012207 12.0001C0.00012207 18.6016 5.39859 24 12.0001 24C18.6015 24 24 18.6016 24 12.0001C24 11.6117 23.6852 11.297 23.2969 11.297Z" fill="#FE4C4C"/>
<path d="M10.6652 4.38935C11.0477 4.32204 11.3031 3.95745 11.2351 3.575L10.716 0.581042C10.6487 0.198589 10.2793 -0.0575358 9.90166 0.0111361C9.51921 0.0784486 9.26379 0.443042 9.33175 0.825495L9.85085 3.81945C9.91858 4.20654 10.29 4.45812 10.6652 4.38935Z" fill="#FE4C4C"/>
</svg>
